<?xml version="1.0" encoding="UTF-8" ?>
<svg version="1.1" width="2048" height="2048" xmlns="http://www.w3.org/2000/svg" shape-rendering="crispEdges">
<rect x="896" y="128" width="128" height="128" fill="#572020" />
<rect x="384" y="256" width="128" height="128" fill="#572020" />
<rect x="768" y="256" width="128" height="128" fill="#572020" />
<rect x="896" y="256" width="128" height="128" fill="#FFE4AB" />
<rect x="1024" y="256" width="128" height="128" fill="#572020" />
<rect x="1408" y="256" width="128" height="128" fill="#572020" />
<rect x="256" y="384" width="128" height="128" fill="#572020" />
<rect x="384" y="384" width="128" height="128" fill="#FFE4AB" />
<rect x="512" y="384" width="128" height="128" fill="#572020" />
<rect x="768" y="384" width="128" height="128" fill="#572020" />
<rect x="896" y="384" width="128" height="128" fill="#C2675B" />
<rect x="1024" y="384" width="128" height="128" fill="#572020" />
<rect x="1280" y="384" width="128" height="128" fill="#572020" />
<rect x="1408" y="384" width="128" height="128" fill="#FFE4AB" />
<rect x="1536" y="384" width="128" height="128" fill="#572020" />
<rect x="256" y="512" width="128" height="128" fill="#572020" />
<rect x="384" y="512" width="128" height="128" fill="#C2675B" />
<rect x="512" y="512" width="128" height="128" fill="#572020" />
<rect x="768" y="512" width="128" height="128" fill="#572020" />
<rect x="896" y="512" width="128" height="128" fill="#F5BB8C" />
<rect x="1024" y="512" width="128" height="128" fill="#572020" />
<rect x="1280" y="512" width="128" height="128" fill="#572020" />
<rect x="1408" y="512" width="128" height="128" fill="#C2675B" />
<rect x="1536" y="512" width="128" height="128" fill="#572020" />
<rect x="384" y="640" width="128" height="128" fill="#572020" />
<rect x="512" y="640" width="128" height="128" fill="#FFCE96" />
<rect x="640" y="640" width="128" height="128" fill="#572020" />
<rect x="768" y="640" width="128" height="128" fill="#572020" />
<rect x="896" y="640" width="128" height="128" fill="#F5BB8C" />
<rect x="1024" y="640" width="128" height="128" fill="#572020" />
<rect x="1152" y="640" width="128" height="128" fill="#572020" />
<rect x="1280" y="640" width="128" height="128" fill="#FFCE96" />
<rect x="1408" y="640" width="128" height="128" fill="#572020" />
<rect x="1664" y="640" width="128" height="128" fill="#572020" />
<rect x="384" y="768" width="128" height="128" fill="#572020" />
<rect x="512" y="768" width="128" height="128" fill="#FFCE96" />
<rect x="640" y="768" width="128" height="128" fill="#572020" />
<rect x="768" y="768" width="128" height="128" fill="#572020" />
<rect x="896" y="768" width="128" height="128" fill="#FFCE96" />
<rect x="1024" y="768" width="128" height="128" fill="#572020" />
<rect x="1152" y="768" width="128" height="128" fill="#572020" />
<rect x="1280" y="768" width="128" height="128" fill="#FFCE96" />
<rect x="1408" y="768" width="128" height="128" fill="#572020" />
<rect x="1536" y="768" width="128" height="128" fill="#572020" />
<rect x="1664" y="768" width="128" height="128" fill="#FFE4AB" />
<rect x="1792" y="768" width="128" height="128" fill="#572020" />
<rect x="512" y="896" width="128" height="128" fill="#572020" />
<rect x="640" y="896" width="128" height="128" fill="#DE9176" />
<rect x="768" y="896" width="128" height="128" fill="#572020" />
<rect x="896" y="896" width="128" height="128" fill="#FFCE96" />
<rect x="1024" y="896" width="128" height="128" fill="#572020" />
<rect x="1152" y="896" width="128" height="128" fill="#DE9176" />
<rect x="1280" y="896" width="128" height="128" fill="#FFCE96" />
<rect x="1408" y="896" width="128" height="128" fill="#572020" />
<rect x="1536" y="896" width="128" height="128" fill="#C2675B" />
<rect x="1664" y="896" width="128" height="128" fill="#F5BB8C" />
<rect x="1792" y="896" width="128" height="128" fill="#572020" />
<rect x="128" y="1024" width="128" height="128" fill="#572020" />
<rect x="256" y="1024" width="128" height="128" fill="#572020" />
<rect x="512" y="1024" width="128" height="128" fill="#572020" />
<rect x="640" y="1024" width="128" height="128" fill="#FFCE96" />
<rect x="768" y="1024" width="128" height="128" fill="#FF8F8F" />
<rect x="896" y="1024" width="128" height="128" fill="#FFCE96" />
<rect x="1024" y="1024" width="128" height="128" fill="#FF8F8F" />
<rect x="1152" y="1024" width="128" height="128" fill="#FFCE96" />
<rect x="1280" y="1024" width="128" height="128" fill="#FFCE96" />
<rect x="1408" y="1024" width="128" height="128" fill="#DE9176" />
<rect x="1536" y="1024" width="128" height="128" fill="#FFCE96" />
<rect x="1664" y="1024" width="128" height="128" fill="#572020" />
<rect x="0" y="1152" width="128" height="128" fill="#572020" />
<rect x="128" y="1152" width="128" height="128" fill="#DE9176" />
<rect x="256" y="1152" width="128" height="128" fill="#DE9176" />
<rect x="384" y="1152" width="128" height="128" fill="#572020" />
<rect x="512" y="1152" width="128" height="128" fill="#DE9176" />
<rect x="640" y="1152" width="128" height="128" fill="#FFCE96" />
<rect x="768" y="1152" width="128" height="128" fill="#FFCE96" />
<rect x="896" y="1152" width="128" height="128" fill="#FFCE96" />
<rect x="1024" y="1152" width="128" height="128" fill="#FFCE96" />
<rect x="1152" y="1152" width="128" height="128" fill="#FFCE96" />
<rect x="1280" y="1152" width="128" height="128" fill="#FFCE96" />
<rect x="1408" y="1152" width="128" height="128" fill="#F5BB8C" />
<rect x="1536" y="1152" width="128" height="128" fill="#FFCE96" />
<rect x="1664" y="1152" width="128" height="128" fill="#572020" />
<rect x="0" y="1280" width="128" height="128" fill="#572020" />
<rect x="128" y="1280" width="128" height="128" fill="#FFE4AB" />
<rect x="256" y="1280" width="128" height="128" fill="#C2675B" />
<rect x="384" y="1280" width="128" height="128" fill="#FFCE96" />
<rect x="512" y="1280" width="128" height="128" fill="#F5BB8C" />
<rect x="640" y="1280" width="128" height="128" fill="#FFCE96" />
<rect x="768" y="1280" width="128" height="128" fill="#FFCE96" />
<rect x="896" y="1280" width="128" height="128" fill="#FFCE96" />
<rect x="1024" y="1280" width="128" height="128" fill="#FFCE96" />
<rect x="1152" y="1280" width="128" height="128" fill="#FFCE96" />
<rect x="1280" y="1280" width="128" height="128" fill="#FFCE96" />
<rect x="1408" y="1280" width="128" height="128" fill="#DE9176" />
<rect x="1536" y="1280" width="128" height="128" fill="#572020" />
<rect x="128" y="1408" width="128" height="128" fill="#572020" />
<rect x="256" y="1408" width="128" height="128" fill="#572020" />
<rect x="384" y="1408" width="128" height="128" fill="#DE9176" />
<rect x="512" y="1408" width="128" height="128" fill="#DE9176" />
<rect x="640" y="1408" width="128" height="128" fill="#FFCE96" />
<rect x="768" y="1408" width="128" height="128" fill="#FFCE96" />
<rect x="896" y="1408" width="128" height="128" fill="#FFCE96" />
<rect x="1024" y="1408" width="128" height="128" fill="#FFCE96" />
<rect x="1152" y="1408" width="128" height="128" fill="#FFCE96" />
<rect x="1280" y="1408" width="128" height="128" fill="#F5BB8C" />
<rect x="1408" y="1408" width="128" height="128" fill="#DE9176" />
<rect x="1536" y="1408" width="128" height="128" fill="#572020" />
<rect x="384" y="1536" width="128" height="128" fill="#572020" />
<rect x="512" y="1536" width="128" height="128" fill="#DE9176" />
<rect x="640" y="1536" width="128" height="128" fill="#F5BB8C" />
<rect x="768" y="1536" width="128" height="128" fill="#FFCE96" />
<rect x="896" y="1536" width="128" height="128" fill="#FFCE96" />
<rect x="1024" y="1536" width="128" height="128" fill="#FFCE96" />
<rect x="1152" y="1536" width="128" height="128" fill="#FFCE96" />
<rect x="1280" y="1536" width="128" height="128" fill="#DE9176" />
<rect x="1408" y="1536" width="128" height="128" fill="#572020" />
<rect x="512" y="1664" width="128" height="128" fill="#572020" />
<rect x="640" y="1664" width="128" height="128" fill="#DE9176" />
<rect x="768" y="1664" width="128" height="128" fill="#FFCE96" />
<rect x="896" y="1664" width="128" height="128" fill="#FFCE96" />
<rect x="1024" y="1664" width="128" height="128" fill="#FFCE96" />
<rect x="1152" y="1664" width="128" height="128" fill="#FFCE96" />
<rect x="1280" y="1664" width="128" height="128" fill="#DE9176" />
<rect x="1408" y="1664" width="128" height="128" fill="#572020" />
<rect x="640" y="1792" width="128" height="128" fill="#572020" />
<rect x="768" y="1792" width="128" height="128" fill="#DE9176" />
<rect x="896" y="1792" width="128" height="128" fill="#FFCE96" />
<rect x="1024" y="1792" width="128" height="128" fill="#FF8F8F" />
<rect x="1152" y="1792" width="128" height="128" fill="#DE9176" />
<rect x="1280" y="1792" width="128" height="128" fill="#572020" />
<rect x="640" y="1920" width="128" height="128" fill="#572020" />
<rect x="768" y="1920" width="128" height="128" fill="#572020" />
<rect x="896" y="1920" width="128" height="128" fill="#572020" />
<rect x="1024" y="1920" width="128" height="128" fill="#572020" />
<rect x="1152" y="1920" width="128" height="128" fill="#572020" />
<rect x="1280" y="1920" width="128" height="128" fill="#572020" />
</svg>